<svg width="223" height="221" viewBox="0 0 223 221" fill="none" xmlns="http://www.w3.org/2000/svg">
<path d="M209.803 87.8478C217.96 101.848 217.96 119.152 209.803 133.152L180.269 183.848C172.208 197.685 157.401 206.196 141.386 206.196L81.6136 206.196C65.5995 206.196 50.7919 197.685 42.7307 183.848L13.1966 133.152C5.04043 119.152 5.04045 101.848 13.1966 87.8478L42.7307 37.152C50.7919 23.3148 65.5995 14.8042 81.6136 14.8042L141.386 14.8042C157.401 14.8042 172.208 23.3148 180.269 37.152L209.803 87.8478Z" fill="#FF1D00"/>
<path d="M183.494 143.128H193.542V152.984H183.494V143.128Z" fill="#FFDFAE"/>
<path d="M171.192 132.888C170.765 130.584 169.997 128.835 168.888 127.64C167.821 126.445 166.179 125.848 163.96 125.848C162.509 125.848 161.293 126.104 160.312 126.616C159.373 127.085 158.605 127.683 158.008 128.408C157.453 129.133 157.048 129.901 156.792 130.712C156.579 131.523 156.451 132.248 156.408 132.888H171.192ZM156.408 138.648C156.536 141.592 157.283 143.725 158.648 145.048C160.013 146.371 161.976 147.032 164.536 147.032C166.371 147.032 167.949 146.584 169.272 145.688C170.595 144.749 171.405 143.768 171.704 142.744H179.704C178.424 146.712 176.461 149.549 173.816 151.256C171.171 152.963 167.971 153.816 164.216 153.816C161.613 153.816 159.267 153.411 157.176 152.6C155.085 151.747 153.315 150.552 151.864 149.016C150.413 147.48 149.283 145.645 148.472 143.512C147.704 141.379 147.32 139.032 147.32 136.472C147.32 133.997 147.725 131.693 148.536 129.56C149.347 127.427 150.499 125.592 151.992 124.056C153.485 122.477 155.256 121.24 157.304 120.344C159.395 119.448 161.699 119 164.216 119C167.032 119 169.485 119.555 171.576 120.664C173.667 121.731 175.373 123.181 176.696 125.016C178.061 126.851 179.043 128.941 179.64 131.288C180.237 133.635 180.451 136.088 180.28 138.648H156.408Z" fill="#FFDFAE"/>
<path d="M135.843 136.344C135.843 134.979 135.715 133.677 135.459 132.44C135.203 131.16 134.755 130.051 134.115 129.112C133.518 128.131 132.728 127.341 131.747 126.744C130.766 126.147 129.528 125.848 128.035 125.848C126.542 125.848 125.283 126.147 124.259 126.744C123.235 127.341 122.403 128.131 121.763 129.112C121.166 130.093 120.718 131.224 120.419 132.504C120.163 133.741 120.035 135.043 120.035 136.408C120.035 137.688 120.184 138.968 120.483 140.248C120.782 141.528 121.251 142.68 121.891 143.704C122.574 144.685 123.406 145.496 124.387 146.136C125.411 146.733 126.627 147.032 128.035 147.032C129.528 147.032 130.766 146.733 131.747 146.136C132.771 145.539 133.582 144.749 134.179 143.768C134.776 142.744 135.203 141.592 135.459 140.312C135.715 139.032 135.843 137.709 135.843 136.344ZM135.971 148.76H135.843C134.776 150.552 133.368 151.853 131.619 152.664C129.912 153.432 127.971 153.816 125.795 153.816C123.32 153.816 121.144 153.347 119.267 152.408C117.39 151.427 115.832 150.125 114.595 148.504C113.4 146.84 112.483 144.941 111.843 142.808C111.246 140.675 110.947 138.456 110.947 136.152C110.947 133.933 111.246 131.8 111.843 129.752C112.483 127.661 113.4 125.827 114.595 124.248C115.832 122.669 117.368 121.411 119.203 120.472C121.038 119.491 123.171 119 125.603 119C127.566 119 129.422 119.427 131.171 120.28C132.963 121.091 134.371 122.307 135.395 123.928H135.523V107.288H144.611V152.984H135.971V148.76Z" fill="#FFDFAE"/>
<path d="M83.854 136.472C83.854 137.795 83.982 139.096 84.238 140.376C84.494 141.613 84.9207 142.744 85.518 143.768C86.158 144.749 86.99 145.539 88.014 146.136C89.038 146.733 90.318 147.032 91.854 147.032C93.39 147.032 94.67 146.733 95.694 146.136C96.7607 145.539 97.5927 144.749 98.19 143.768C98.83 142.744 99.278 141.613 99.534 140.376C99.79 139.096 99.918 137.795 99.918 136.472C99.918 135.149 99.79 133.848 99.534 132.568C99.278 131.288 98.83 130.157 98.19 129.176C97.5927 128.195 96.7607 127.405 95.694 126.808C94.67 126.168 93.39 125.848 91.854 125.848C90.318 125.848 89.038 126.168 88.014 126.808C86.99 127.405 86.158 128.195 85.518 129.176C84.9207 130.157 84.494 131.288 84.238 132.568C83.982 133.848 83.854 135.149 83.854 136.472ZM74.766 136.472C74.766 133.827 75.1713 131.437 75.982 129.304C76.7927 127.128 77.9447 125.293 79.438 123.8C80.9313 122.264 82.7233 121.091 84.814 120.28C86.9047 119.427 89.2513 119 91.854 119C94.4567 119 96.8033 119.427 98.894 120.28C101.027 121.091 102.841 122.264 104.334 123.8C105.827 125.293 106.979 127.128 107.79 129.304C108.601 131.437 109.006 133.827 109.006 136.472C109.006 139.117 108.601 141.507 107.79 143.64C106.979 145.773 105.827 147.608 104.334 149.144C102.841 150.637 101.027 151.789 98.894 152.6C96.8033 153.411 94.4567 153.816 91.854 153.816C89.2513 153.816 86.9047 153.411 84.814 152.6C82.7233 151.789 80.9313 150.637 79.438 149.144C77.9447 147.608 76.7927 145.773 75.982 143.64C75.1713 141.507 74.766 139.117 74.766 136.472Z" fill="#FFDFAE"/>
<path d="M64.128 131.544C63.5307 127.747 61.2907 125.848 57.408 125.848C55.9573 125.848 54.7413 126.189 53.76 126.872C52.7787 127.512 51.968 128.365 51.328 129.432C50.7307 130.456 50.304 131.608 50.048 132.888C49.792 134.125 49.664 135.363 49.664 136.6C49.664 137.795 49.792 139.011 50.048 140.248C50.304 141.485 50.7093 142.616 51.264 143.64C51.8613 144.621 52.6507 145.432 53.632 146.072C54.6133 146.712 55.808 147.032 57.216 147.032C59.392 147.032 61.056 146.435 62.208 145.24C63.4027 144.003 64.1493 142.36 64.448 140.312H73.216C72.6187 144.707 70.912 148.056 68.096 150.36C65.28 152.664 61.6747 153.816 57.28 153.816C54.8053 153.816 52.5227 153.411 50.432 152.6C48.384 151.747 46.6347 150.573 45.184 149.08C43.7333 147.587 42.6027 145.816 41.792 143.768C40.9813 141.677 40.576 139.395 40.576 136.92C40.576 134.36 40.9387 131.992 41.664 129.816C42.432 127.597 43.5413 125.699 44.992 124.12C46.4427 122.499 48.2133 121.24 50.304 120.344C52.3947 119.448 54.784 119 57.472 119C59.4347 119 61.312 119.256 63.104 119.768C64.9387 120.28 66.56 121.069 67.968 122.136C69.4187 123.16 70.592 124.461 71.488 126.04C72.384 127.576 72.896 129.411 73.024 131.544H64.128Z" fill="#FFDFAE"/>
<path d="M152.398 91.232C152.398 92.2133 152.59 93.0667 152.974 93.792C153.4 94.4747 153.934 95.0507 154.574 95.52C155.214 95.9467 155.939 96.2667 156.75 96.48C157.603 96.6933 158.478 96.8 159.374 96.8C160.014 96.8 160.675 96.736 161.358 96.608C162.083 96.4373 162.723 96.2027 163.278 95.904C163.875 95.5627 164.366 95.136 164.75 94.624C165.134 94.0693 165.326 93.3867 165.326 92.576C165.326 91.2107 164.408 90.1867 162.574 89.504C160.782 88.8213 158.264 88.1387 155.022 87.456C153.699 87.1573 152.398 86.816 151.118 86.432C149.88 86.0053 148.771 85.472 147.79 84.832C146.808 84.1493 146.019 83.3173 145.422 82.336C144.824 81.312 144.526 80.0747 144.526 78.624C144.526 76.4907 144.931 74.7413 145.742 73.376C146.595 72.0107 147.704 70.944 149.07 70.176C150.435 69.3653 151.971 68.8107 153.678 68.512C155.384 68.1707 157.134 68 158.926 68C160.718 68 162.446 68.1707 164.11 68.512C165.816 68.8533 167.331 69.4293 168.654 70.24C169.976 71.0507 171.064 72.1387 171.918 73.504C172.814 74.8267 173.347 76.512 173.518 78.56H164.878C164.75 76.8107 164.088 75.6373 162.894 75.04C161.699 74.4 160.291 74.08 158.67 74.08C158.158 74.08 157.603 74.1227 157.006 74.208C156.408 74.2507 155.854 74.3787 155.342 74.592C154.872 74.8053 154.467 75.1253 154.126 75.552C153.784 75.936 153.614 76.4693 153.614 77.152C153.614 77.9627 153.912 78.624 154.51 79.136C155.107 79.648 155.875 80.0747 156.814 80.416C157.795 80.7147 158.904 80.992 160.142 81.248C161.379 81.504 162.638 81.7813 163.918 82.08C165.24 82.3787 166.52 82.7413 167.757 83.168C169.037 83.5947 170.168 84.1707 171.149 84.896C172.131 85.5787 172.92 86.4533 173.518 87.52C174.115 88.544 174.414 89.824 174.414 91.36C174.414 93.536 173.966 95.3707 173.07 96.864C172.216 98.3147 171.086 99.488 169.678 100.384C168.27 101.28 166.648 101.899 164.814 102.24C163.022 102.624 161.187 102.816 159.31 102.816C157.39 102.816 155.512 102.624 153.678 102.24C151.843 101.856 150.2 101.216 148.75 100.32C147.342 99.424 146.168 98.2507 145.23 96.8C144.334 95.3067 143.843 93.4507 143.758 91.232H152.398Z" fill="#FFDFAE"/>
<path d="M141.02 101.984H132.38V97.376H132.188C131.036 99.296 129.543 100.683 127.708 101.536C125.873 102.389 123.996 102.816 122.076 102.816C119.644 102.816 117.639 102.496 116.06 101.856C114.524 101.216 113.308 100.32 112.412 99.168C111.516 97.9733 110.876 96.544 110.492 94.88C110.151 93.1733 109.98 91.296 109.98 89.248V68.896H119.068V87.584C119.068 90.3147 119.495 92.3627 120.348 93.728C121.201 95.0507 122.716 95.712 124.892 95.712C127.367 95.712 129.159 94.9867 130.268 93.536C131.377 92.0427 131.932 89.6107 131.932 86.24V68.896H141.02V101.984Z" fill="#FFDFAE"/>
<path d="M81.479 85.472C81.479 86.7947 81.607 88.096 81.863 89.376C82.119 90.6133 82.5457 91.744 83.143 92.768C83.783 93.7493 84.615 94.5387 85.639 95.136C86.663 95.7333 87.943 96.032 89.479 96.032C91.015 96.032 92.295 95.7333 93.319 95.136C94.3857 94.5387 95.2177 93.7493 95.815 92.768C96.455 91.744 96.903 90.6133 97.159 89.376C97.415 88.096 97.543 86.7947 97.543 85.472C97.543 84.1493 97.415 82.848 97.159 81.568C96.903 80.288 96.455 79.1573 95.815 78.176C95.2177 77.1947 94.3857 76.4053 93.319 75.808C92.295 75.168 91.015 74.848 89.479 74.848C87.943 74.848 86.663 75.168 85.639 75.808C84.615 76.4053 83.783 77.1947 83.143 78.176C82.5457 79.1573 82.119 80.288 81.863 81.568C81.607 82.848 81.479 84.1493 81.479 85.472ZM72.391 85.472C72.391 82.8267 72.7963 80.4373 73.607 78.304C74.4177 76.128 75.5697 74.2933 77.063 72.8C78.5563 71.264 80.3483 70.0907 82.439 69.28C84.5297 68.4267 86.8763 68 89.479 68C92.0817 68 94.4283 68.4267 96.519 69.28C98.6523 70.0907 100.466 71.264 101.959 72.8C103.452 74.2933 104.604 76.128 105.415 78.304C106.226 80.4373 106.631 82.8267 106.631 85.472C106.631 88.1173 106.226 90.5067 105.415 92.64C104.604 94.7733 103.452 96.608 101.959 98.144C100.466 99.6373 98.6523 100.789 96.519 101.6C94.4283 102.411 92.0817 102.816 89.479 102.816C86.8763 102.816 84.5297 102.411 82.439 101.6C80.3483 100.789 78.5563 99.6373 77.063 98.144C75.5697 96.608 74.4177 94.7733 73.607 92.64C72.7963 90.5067 72.391 88.1173 72.391 85.472Z" fill="#FFDFAE"/>
<path d="M48.64 91.232C48.64 92.2133 48.832 93.0667 49.216 93.792C49.6427 94.4747 50.176 95.0507 50.816 95.52C51.456 95.9467 52.1813 96.2667 52.992 96.48C53.8453 96.6933 54.72 96.8 55.616 96.8C56.256 96.8 56.9173 96.736 57.6 96.608C58.3253 96.4373 58.9653 96.2027 59.52 95.904C60.1173 95.5627 60.608 95.136 60.992 94.624C61.376 94.0693 61.568 93.3867 61.568 92.576C61.568 91.2107 60.6507 90.1867 58.816 89.504C57.024 88.8213 54.5067 88.1387 51.264 87.456C49.9413 87.1573 48.64 86.816 47.36 86.432C46.1227 86.0053 45.0133 85.472 44.032 84.832C43.0507 84.1493 42.2613 83.3173 41.664 82.336C41.0667 81.312 40.768 80.0747 40.768 78.624C40.768 76.4907 41.1733 74.7413 41.984 73.376C42.8373 72.0107 43.9467 70.944 45.312 70.176C46.6773 69.3653 48.2133 68.8107 49.92 68.512C51.6267 68.1707 53.376 68 55.168 68C56.96 68 58.688 68.1707 60.352 68.512C62.0587 68.8533 63.5733 69.4293 64.896 70.24C66.2187 71.0507 67.3067 72.1387 68.16 73.504C69.056 74.8267 69.5893 76.512 69.76 78.56H61.12C60.992 76.8107 60.3307 75.6373 59.136 75.04C57.9413 74.4 56.5333 74.08 54.912 74.08C54.4 74.08 53.8453 74.1227 53.248 74.208C52.6507 74.2507 52.096 74.3787 51.584 74.592C51.1147 74.8053 50.7093 75.1253 50.368 75.552C50.0267 75.936 49.856 76.4693 49.856 77.152C49.856 77.9627 50.1547 78.624 50.752 79.136C51.3493 79.648 52.1173 80.0747 53.056 80.416C54.0373 80.7147 55.1467 80.992 56.384 81.248C57.6213 81.504 58.88 81.7813 60.16 82.08C61.4827 82.3787 62.7627 82.7413 64 83.168C65.28 83.5947 66.4107 84.1707 67.392 84.896C68.3733 85.5787 69.1627 86.4533 69.76 87.52C70.3573 88.544 70.656 89.824 70.656 91.36C70.656 93.536 70.208 95.3707 69.312 96.864C68.4587 98.3147 67.328 99.488 65.92 100.384C64.512 101.28 62.8907 101.899 61.056 102.24C59.264 102.624 57.4293 102.816 55.552 102.816C53.632 102.816 51.7547 102.624 49.92 102.24C48.0853 101.856 46.4427 101.216 44.992 100.32C43.584 99.424 42.4107 98.2507 41.472 96.8C40.576 95.3067 40.0853 93.4507 40 91.232H48.64Z" fill="#FFDFAE"/>
</svg>
